# xmcd
#
# Track frame offsets: 
#        150
#        24669
#        41997
#        61330
#
# Disc length: 1084 seconds
#
# Revision: 0
# Processed by: cddbd v1.5.1PL0 Copyright (c) Steve Scherf et al.
# Submitted via: ExactAudioCopy v0.95a5
#
DISCID=32043a04
DTITLE=Pepe Ahlqvist and Tumbleweed - Boogie Thing
DYEAR=1996
DGENRE=Blues
TTITLE0=Boogie Thing
TTITLE1=Rock This House
TTITLE2=Just a Feeling
TTITLE3=Red Headed Woman
EXTD=
EXTT0=
EXTT1=
EXTT2=
EXTT3=
PLAYORDER=
